<svg width="5" height="9" viewBox="0 0 5 9" fill="none" xmlns="http://www.w3.org/2000/svg">
<path d="M4.32326 0.825028L3.36212 0.823486C2.28233 0.823486 1.58451 1.53943 1.58451 2.64753V3.48854H0.618139C0.534633 3.48854 0.46701 3.55624 0.46701 3.63975V4.85827C0.46701 4.94178 0.53471 5.0094 0.618139 5.0094H1.58451V8.08413C1.58451 8.16764 1.65214 8.23526 1.73564 8.23526H2.99649C3.07999 8.23526 3.14761 8.16756 3.14761 8.08413V5.0094H4.27753C4.36104 5.0094 4.42866 4.94178 4.42866 4.85827L4.42912 3.63975C4.42912 3.59965 4.41316 3.56125 4.38486 3.53288C4.35657 3.5045 4.31801 3.48854 4.27792 3.48854H3.14761V2.77561C3.14761 2.43294 3.22927 2.25899 3.67564 2.25899L4.3231 2.25876C4.40653 2.25876 4.47415 2.19106 4.47415 2.10763V0.976159C4.47415 0.892806 4.40661 0.825183 4.32326 0.825028Z" fill="white"/>
</svg>
