<svg width="8" height="8" viewBox="0 0 8 8" fill="none" xmlns="http://www.w3.org/2000/svg">
<path d="M2.01949 2.67822H0.531563C0.465526 2.67822 0.412018 2.73175 0.412018 2.79777V7.57783C0.412018 7.64387 0.465526 7.69738 0.531563 7.69738H2.01949C2.08552 7.69738 2.13903 7.64387 2.13903 7.57783V2.79777C2.13903 2.73175 2.08552 2.67822 2.01949 2.67822Z" fill="white"/>
<path d="M1.27603 0.302246C0.73464 0.302246 0.294189 0.742218 0.294189 1.28301C0.294189 1.82405 0.73464 2.26419 1.27603 2.26419C1.817 2.26419 2.25709 1.82403 2.25709 1.28301C2.25711 0.742218 1.817 0.302246 1.27603 0.302246Z" fill="white"/>
<path d="M5.80415 2.55957C5.20655 2.55957 4.76478 2.81647 4.49683 3.10838V2.79792C4.49683 2.73191 4.44332 2.67837 4.37729 2.67837H2.95234C2.8863 2.67837 2.83279 2.73191 2.83279 2.79792V7.57799C2.83279 7.64402 2.8863 7.69753 2.95234 7.69753H4.43701C4.50305 7.69753 4.55656 7.64402 4.55656 7.57799V5.21296C4.55656 4.41601 4.77303 4.10552 5.32858 4.10552C5.93362 4.10552 5.9817 4.60326 5.9817 5.25397V7.57801C5.9817 7.64405 6.03521 7.69756 6.10124 7.69756H7.58646C7.6525 7.69756 7.70601 7.64405 7.70601 7.57801V4.95606C7.70601 3.77101 7.48005 2.55957 5.80415 2.55957Z" fill="white"/>
</svg>
