<svg width="9" height="7" viewBox="0 0 9 7" fill="none" xmlns="http://www.w3.org/2000/svg">
<path d="M8.41183 0.802417C8.11651 0.931958 7.80184 1.01782 7.47377 1.05951C7.81127 0.858005 8.06887 0.54135 8.18997 0.159677C7.8753 0.347288 7.52787 0.479806 7.15762 0.553759C6.85883 0.235615 6.43298 0.0385742 5.96842 0.0385742C5.0671 0.0385742 4.34147 0.770156 4.34147 1.66701C4.34147 1.79606 4.35239 1.92014 4.37919 2.03826C3.02572 1.97225 1.82809 1.32356 1.02355 0.335376C0.883087 0.579071 0.800698 0.858005 0.800698 1.15828C0.800698 1.72211 1.09105 2.2219 1.52384 2.51126C1.26228 2.5063 1.00568 2.43036 0.788289 2.31075C0.788289 2.31571 0.788289 2.32216 0.788289 2.32861C0.788289 3.11975 1.35261 3.77689 2.09263 3.92827C1.96011 3.9645 1.81568 3.98187 1.66579 3.98187C1.56156 3.98187 1.45634 3.97591 1.35757 3.95407C1.56851 4.5988 2.16708 5.07279 2.87881 5.08818C2.32491 5.52147 1.62162 5.78253 0.860256 5.78253C0.726745 5.78253 0.598694 5.77658 0.470642 5.7602C1.1918 6.22525 2.04647 6.49079 2.96814 6.49079C5.96396 6.49079 7.60183 4.00917 7.60183 1.8581C7.60183 1.78613 7.59934 1.71665 7.59587 1.64766C7.91898 1.41836 8.19047 1.13198 8.41183 0.802417Z" fill="white"/>
</svg>
