<svg width="8" height="7" viewBox="0 0 8 7" fill="none" xmlns="http://www.w3.org/2000/svg">
<path d="M7.2405 1.36915C6.97295 1.05112 6.479 0.921387 5.53564 0.921387H2.11129C1.14634 0.921387 0.644018 1.05948 0.377481 1.39808C0.117615 1.72822 0.117615 2.21465 0.117615 2.88787V4.17104C0.117615 5.4753 0.425945 6.13751 2.11129 6.13751H5.53567C6.35374 6.13751 6.80705 6.02303 7.10032 5.74236C7.40107 5.45455 7.52939 4.98462 7.52939 4.17104V2.88787C7.52939 2.1779 7.50928 1.6886 7.2405 1.36915ZM4.876 3.70661L3.32101 4.5193C3.28624 4.53747 3.24823 4.54648 3.21026 4.54648C3.16727 4.54648 3.12438 4.53491 3.08639 4.51191C3.01485 4.46856 2.97117 4.39103 2.97117 4.3074V2.68723C2.97117 2.60374 3.01473 2.52627 3.08613 2.4829C3.15754 2.43953 3.24636 2.43657 3.32046 2.47506L4.87545 3.28251C4.95456 3.32359 5.00424 3.40526 5.00436 3.49437C5.00446 3.58355 4.95499 3.66534 4.876 3.70661Z" fill="white"/>
</svg>
